<?xml version="1.0" encoding="utf-8"?>
<!-- Generator: Adobe Illustrator 16.2.1, SVG Export Plug-In . SVG Version: 6.00 Build 0)  -->
<!DOCTYPE svg PUBLIC "-//W3C//DTD SVG 1.1//EN" "http://www.w3.org/Graphics/SVG/1.1/DTD/svg11.dtd">
<svg version="1.1" id="Layer_1" xmlns="http://www.w3.org/2000/svg" xmlns:xlink="http://www.w3.org/1999/xlink" x="0px" y="0px"
	 width="190.667px" height="155.906px" viewBox="0 0 190.667 155.906" enable-background="new 0 0 190.667 155.906"
	 xml:space="preserve">
<g>
	<g>
		<path fill="#231F20" d="M186.864,88.861v37.443c-9.519,0.663-31.275,3.42-54.297,14.955h-0.005l-0.012,0.008
			c-17.665,9.041-33.595,9.497-36.459,9.495l-0.265-0.004h-0.056l-0.534-0.05l-0.096,0.05c-3.02,0-18.834-0.507-36.373-9.483
			l-0.014-0.006v-0.002c-23.17-11.61-44.847-14.331-54.319-14.974V88.861h8.058V66.541H4.435V29.107
			c9.472-0.647,31.146-3.368,54.301-14.969l0.007-0.004l0.006-0.003C76.416,5.09,92.344,4.632,95.21,4.635l0.261,0.003l0.103,0.002
			l0.089,0.001h0.043c0.023-0.001,0.218-0.006,0.385-0.006c2.864-0.003,18.794,0.454,36.444,9.488l0.007,0.004l0.008,0.003
			c23.156,11.605,44.838,14.33,54.313,14.977v37.434h-8.058v22.321H186.864z"/>
	</g>
	<path fill="#231F20" d="M191.565,70.926V24.662c0,0-27.51,0-56.787-14.679c-20.536-10.5-38.945-9.979-38.945-9.979
		S77.429-0.518,56.89,9.983C27.613,24.662,0.103,24.662,0.103,24.662v46.264h8.058v13.301H0.103v46.263c0,0,27.51,0,56.787,14.678
		c20.539,10.502,38.942,9.979,38.942,9.979s18.409,0.522,38.945-9.979c29.277-14.678,56.787-14.678,56.787-14.678V84.227h-8.061
		V70.926H191.565z M189.13,86.652v41.48l-0.702,0.045c-8.558,0.49-31.022,2.926-54.746,14.82
		c-18.099,9.255-34.337,9.724-37.408,9.724c-0.206,0-0.422-0.004-0.451-0.008c-0.006,0.004-0.225,0.008-0.429,0.008
		c-3.073,0-19.305-0.469-37.39-9.717C34.12,131.032,11.751,128.64,3.247,128.172l-0.709-0.041V86.652h8.057V68.5H2.538v-41.48
		l0.709-0.037c8.508-0.475,30.873-2.868,54.737-14.832c18.1-9.253,34.337-9.722,37.41-9.722c0.207,0,0.429,0.005,0.451,0.005
		c0.005,0,0.224-0.005,0.43-0.005c3.071,0,19.31,0.468,37.395,9.714c23.87,11.969,46.244,14.364,54.756,14.839l0.706,0.037V68.5
		h-8.058v18.153H189.13z"/>
	<g>
		<path fill="#FFFFFF" d="M28.473,37.368c-0.152-0.057-0.285-0.198-0.333-0.377c-0.079-0.302,0.1-0.598,0.4-0.679
			c0.149-0.039,0.27-0.014,0.358,0.018c0.477,0.189,0.96,0.253,1.473,0.118c0.473-0.126,0.709-0.389,0.628-0.698l-0.003-0.015
			c-0.078-0.293-0.299-0.396-1.239-0.389c-1.132,0.01-1.895-0.101-2.171-1.148l-0.004-0.014c-0.254-0.955,0.347-1.79,1.422-2.075
			c0.641-0.169,1.239-0.154,1.792,0.024c0.15,0.04,0.32,0.165,0.379,0.391c0.079,0.301-0.1,0.597-0.401,0.677
			c-0.113,0.03-0.211,0.023-0.314-0.005c-0.444-0.124-0.839-0.156-1.199-0.061c-0.444,0.118-0.622,0.382-0.556,0.638l0.004,0.015
			c0.092,0.346,0.348,0.398,1.32,0.392c1.141-0.005,1.845,0.219,2.087,1.137l0.004,0.015c0.277,1.045-0.366,1.843-1.5,2.144
			C29.927,37.659,29.173,37.635,28.473,37.368z"/>
		<path fill="#FFFFFF" d="M33.101,31.676c-0.1-0.32,0.075-0.651,0.396-0.75l1.554-0.482c1.243-0.388,2.221,0.116,2.552,1.181
			l0.005,0.015c0.374,1.205-0.37,2.119-1.538,2.483l-0.87,0.27l0.322,1.034c0.098,0.32-0.075,0.65-0.394,0.751
			c-0.321,0.1-0.652-0.076-0.752-0.395L33.101,31.676z M35.79,33.091c0.573-0.177,0.801-0.624,0.663-1.07l-0.004-0.015
			c-0.159-0.514-0.601-0.677-1.175-0.5l-0.884,0.276l0.494,1.592L35.79,33.091z"/>
		<path fill="#FFFFFF" d="M40.266,33.861l-1.424-4.002c-0.112-0.314,0.049-0.653,0.363-0.765l2.846-1.01
			c0.279-0.101,0.587,0.047,0.685,0.326c0.1,0.279-0.05,0.58-0.328,0.677l-2.288,0.815l0.37,1.04l1.958-0.696
			c0.277-0.098,0.586,0.048,0.686,0.328c0.099,0.278-0.05,0.579-0.33,0.678l-1.957,0.695l0.384,1.078l2.324-0.826
			c0.276-0.099,0.586,0.048,0.685,0.326c0.099,0.277-0.05,0.578-0.33,0.677l-2.88,1.026C40.715,34.338,40.376,34.178,40.266,33.861z
			"/>
		<path fill="#FFFFFF" d="M45.114,29.854l-0.005-0.014c-0.587-1.435,0.014-3.05,1.562-3.683c0.757-0.31,1.351-0.318,1.896-0.178
			c0.149,0.04,0.316,0.157,0.396,0.352c0.122,0.303-0.025,0.64-0.329,0.763c-0.15,0.062-0.273,0.046-0.374,0.027
			c-0.404-0.103-0.782-0.1-1.177,0.062c-0.852,0.347-1.174,1.305-0.822,2.169l0.005,0.014c0.355,0.865,1.248,1.34,2.111,0.988
			c0.468-0.191,0.72-0.462,0.934-0.845c0.057-0.108,0.151-0.205,0.28-0.257c0.282-0.115,0.613,0.019,0.729,0.3
			c0.072,0.172,0.041,0.343-0.025,0.473c-0.291,0.581-0.727,1.038-1.534,1.366C47.276,31.996,45.706,31.302,45.114,29.854z"/>
		<path fill="#FFFFFF" d="M50.683,25.136c-0.139-0.304-0.008-0.654,0.296-0.792c0.306-0.14,0.654-0.009,0.792,0.296l1.797,3.949
			c0.139,0.304,0.008,0.654-0.295,0.792c-0.305,0.139-0.655,0.008-0.793-0.297L50.683,25.136z"/>
		<path fill="#FFFFFF" d="M55.5,27.465l-0.23-4.683c-0.014-0.324,0.12-0.591,0.413-0.738l0.062-0.032
			c0.293-0.146,0.581-0.092,0.833,0.113l3.623,2.977c0.072,0.058,0.128,0.117,0.164,0.187c0.144,0.285,0.034,0.627-0.25,0.77
			c-0.25,0.125-0.49,0.063-0.7-0.109l-0.71-0.601l-2.14,1.076l0.061,0.971c0.015,0.254-0.103,0.47-0.326,0.582
			c-0.278,0.139-0.605,0.025-0.745-0.252C55.515,27.65,55.503,27.56,55.5,27.465z M57.832,24.603l-1.482-1.267l0.134,1.944
			L57.832,24.603z"/>
		<path fill="#FFFFFF" d="M60.486,20.461c-0.129-0.308,0.013-0.654,0.321-0.784c0.307-0.129,0.653,0.012,0.781,0.319l1.474,3.502
			l2.04-0.857c0.279-0.118,0.595,0.012,0.712,0.291c0.117,0.28-0.012,0.594-0.291,0.712l-2.592,1.088
			c-0.31,0.13-0.655-0.012-0.785-0.319L60.486,20.461z"/>
		<path fill="#FFFFFF" d="M66.77,18.537l-1.085,0.386c-0.286,0.101-0.604-0.05-0.706-0.335c-0.1-0.286,0.05-0.605,0.336-0.706
			l3.298-1.172c0.286-0.102,0.604,0.049,0.706,0.335c0.101,0.287-0.051,0.604-0.335,0.706l-1.085,0.387l1.27,3.568
			c0.111,0.316-0.049,0.653-0.365,0.766c-0.316,0.111-0.654-0.05-0.766-0.365L66.77,18.537z"/>
		<path fill="#FFFFFF" d="M73.562,18.686l-2.333-1.823c-0.114-0.089-0.21-0.207-0.258-0.371c-0.084-0.307,0.1-0.626,0.422-0.715
			c0.26-0.073,0.465,0.021,0.667,0.192l1.785,1.476l0.776-2.21c0.083-0.25,0.216-0.432,0.456-0.5
			c0.352-0.098,0.631,0.09,0.719,0.404c0.045,0.157,0.009,0.32-0.037,0.445l-1.049,2.756l0.423,1.511
			c0.09,0.321-0.092,0.646-0.415,0.737c-0.321,0.09-0.647-0.092-0.738-0.415L73.562,18.686z"/>
		<path fill="#FFFFFF" d="M81.346,13.927c-0.053-0.329,0.164-0.633,0.493-0.687c0.331-0.056,0.634,0.163,0.689,0.492l0.26,1.579
			l2.179-0.361l-0.261-1.579c-0.054-0.329,0.164-0.635,0.492-0.689c0.329-0.055,0.633,0.163,0.688,0.493l0.709,4.281
			c0.054,0.329-0.163,0.633-0.493,0.686c-0.329,0.057-0.633-0.162-0.688-0.492l-0.267-1.61l-2.179,0.36l0.266,1.612
			c0.056,0.33-0.161,0.634-0.491,0.688c-0.331,0.054-0.635-0.164-0.688-0.492L81.346,13.927z"/>
		<path fill="#FFFFFF" d="M88.534,15.008l-0.001-0.015c-0.106-1.542,1.027-2.892,2.702-3.005c1.676-0.116,2.962,1.053,3.066,2.595
			l0.003,0.015c0.105,1.543-1.028,2.892-2.701,3.005C89.927,17.718,88.64,16.552,88.534,15.008z M93.055,14.699l-0.002-0.015
			c-0.062-0.931-0.798-1.66-1.759-1.593c-0.962,0.064-1.577,0.871-1.515,1.8l0.002,0.018c0.063,0.929,0.798,1.659,1.761,1.592
			C92.504,16.437,93.119,15.63,93.055,14.699z"/>
		<path fill="#FFFFFF" d="M97.701,13.035l-1.148-0.045c-0.305-0.012-0.546-0.269-0.534-0.572c0.012-0.302,0.268-0.542,0.574-0.531
			l3.499,0.133c0.303,0.012,0.542,0.269,0.529,0.572c-0.011,0.303-0.268,0.543-0.571,0.531l-1.152-0.044l-0.145,3.789
			c-0.014,0.333-0.287,0.589-0.622,0.574c-0.332-0.013-0.587-0.287-0.573-0.62L97.701,13.035z"/>
		<path fill="#FFFFFF" d="M105.8,15.38l0.003-0.015c0.262-1.527,1.629-2.581,3.276-2.298c0.806,0.137,1.313,0.447,1.7,0.852
			c0.109,0.113,0.188,0.3,0.15,0.508c-0.056,0.323-0.358,0.53-0.681,0.476c-0.161-0.029-0.257-0.107-0.334-0.176
			c-0.287-0.301-0.609-0.499-1.03-0.572c-0.904-0.153-1.687,0.486-1.843,1.405l-0.002,0.017c-0.16,0.919,0.348,1.795,1.268,1.954
			c0.5,0.086,0.854-0.012,1.237-0.223c0.104-0.061,0.237-0.093,0.376-0.07c0.298,0.052,0.509,0.34,0.458,0.64
			c-0.031,0.183-0.148,0.313-0.271,0.386c-0.556,0.341-1.166,0.497-2.024,0.349C106.5,18.342,105.538,16.922,105.8,15.38z"/>
		<path fill="#FFFFFF" d="M113.387,14.563c0.081-0.323,0.401-0.516,0.725-0.434c0.324,0.081,0.519,0.401,0.436,0.726l-0.387,1.553
			l2.143,0.536l0.387-1.554c0.082-0.324,0.402-0.516,0.726-0.435c0.324,0.081,0.517,0.401,0.434,0.725l-1.049,4.21
			c-0.083,0.323-0.403,0.516-0.726,0.435c-0.325-0.08-0.519-0.401-0.438-0.726l0.396-1.584l-2.14-0.536l-0.397,1.584
			c-0.082,0.323-0.4,0.516-0.727,0.434c-0.321-0.081-0.515-0.401-0.435-0.725L113.387,14.563z"/>
		<path fill="#FFFFFF" d="M119.497,18.415l0.007-0.014c0.493-1.468,2.056-2.281,3.646-1.746c1.595,0.536,2.337,2.108,1.846,3.575
			l-0.006,0.015c-0.493,1.467-2.056,2.279-3.647,1.743C119.748,21.454,119.003,19.882,119.497,18.415z M123.796,19.859l0.005-0.014
			c0.299-0.886-0.103-1.841-1.015-2.148c-0.916-0.307-1.795,0.203-2.092,1.086l-0.004,0.016c-0.299,0.885,0.104,1.84,1.017,2.148
			C122.623,21.254,123.499,20.745,123.796,19.859z"/>
		<path fill="#FFFFFF" d="M126.876,20.994l0.004-0.013c0.608-1.426,2.178-2.136,3.717-1.48c0.752,0.321,1.177,0.737,1.46,1.223
			c0.078,0.135,0.11,0.335,0.03,0.528c-0.128,0.301-0.474,0.434-0.773,0.305c-0.15-0.064-0.227-0.164-0.285-0.247
			c-0.209-0.36-0.478-0.626-0.87-0.794c-0.847-0.361-1.754,0.083-2.121,0.94l-0.006,0.015c-0.366,0.859-0.075,1.83,0.783,2.196
			c0.467,0.198,0.835,0.186,1.259,0.068c0.115-0.035,0.25-0.037,0.38,0.019c0.279,0.119,0.419,0.45,0.3,0.729
			c-0.074,0.171-0.219,0.271-0.354,0.314c-0.62,0.202-1.251,0.212-2.052-0.13C126.874,24.04,126.263,22.434,126.876,20.994z"/>
		<path fill="#FFFFFF" d="M133.035,23.75l0.008-0.014c0.683-1.387,2.337-1.985,3.842-1.243c1.507,0.741,2.034,2.396,1.351,3.783
			l-0.005,0.014c-0.684,1.387-2.338,1.985-3.843,1.243C132.881,26.791,132.352,25.137,133.035,23.75z M137.102,25.751l0.004-0.013
			c0.413-0.837,0.143-1.836-0.722-2.262c-0.864-0.425-1.8-0.038-2.211,0.799l-0.007,0.013c-0.415,0.837-0.143,1.836,0.723,2.262
			C135.753,26.975,136.689,26.588,137.102,25.751z"/>
		<path fill="#FFFFFF" d="M141.012,25.156c0.133-0.308,0.479-0.444,0.79-0.312c0.305,0.133,0.441,0.48,0.308,0.788l-1.511,3.492
			l2.036,0.881c0.278,0.122,0.403,0.439,0.282,0.716c-0.119,0.279-0.438,0.404-0.718,0.283l-2.583-1.12
			c-0.307-0.132-0.445-0.48-0.313-0.788L141.012,25.156z"/>
		<path fill="#FFFFFF" d="M144.471,31.118l3.291-3.333c0.227-0.229,0.517-0.31,0.82-0.195l0.064,0.026
			c0.308,0.116,0.461,0.365,0.479,0.687l0.256,4.678c0.006,0.094,0,0.175-0.026,0.246c-0.114,0.299-0.438,0.451-0.734,0.338
			c-0.263-0.1-0.378-0.319-0.391-0.59l-0.04-0.928l-2.239-0.848l-0.674,0.699c-0.175,0.183-0.415,0.243-0.648,0.154
			c-0.289-0.11-0.427-0.427-0.315-0.719C144.344,31.251,144.403,31.185,144.471,31.118z M148.152,30.901l-0.069-1.947l-1.341,1.412
			L148.152,30.901z"/>
		<path fill="#FFFFFF" d="M153.075,30.469l-1.096-0.364c-0.286-0.096-0.443-0.41-0.346-0.697c0.095-0.289,0.41-0.445,0.698-0.35
			l3.316,1.106c0.288,0.096,0.445,0.41,0.351,0.699c-0.098,0.287-0.41,0.444-0.699,0.348l-1.091-0.363l-1.197,3.59
			c-0.106,0.317-0.44,0.484-0.756,0.379c-0.32-0.105-0.483-0.44-0.379-0.757L153.075,30.469z"/>
		<path fill="#FFFFFF" d="M156.444,35.479l1.17-4.084c0.091-0.321,0.42-0.503,0.741-0.412l2.902,0.83
			c0.282,0.082,0.45,0.379,0.367,0.665c-0.081,0.285-0.378,0.442-0.661,0.36l-2.332-0.667l-0.305,1.062l1.997,0.57
			c0.284,0.082,0.45,0.38,0.367,0.666c-0.081,0.283-0.376,0.441-0.659,0.361l-1.998-0.572l-0.314,1.099l2.369,0.68
			c0.286,0.081,0.451,0.379,0.369,0.663c-0.079,0.284-0.377,0.442-0.66,0.361l-2.939-0.84
			C156.536,36.128,156.354,35.801,156.444,35.479z"/>
	</g>
	<g>
		<path fill="#FFFFFF" d="M69.609,138.375l1.308-4.034c0.104-0.319,0.436-0.49,0.754-0.387l2.868,0.929
			c0.282,0.091,0.437,0.395,0.346,0.675c-0.091,0.281-0.391,0.429-0.672,0.338l-2.306-0.748l-0.342,1.053l1.975,0.638
			c0.282,0.091,0.436,0.395,0.345,0.675c-0.09,0.283-0.392,0.429-0.672,0.338l-1.974-0.639l-0.352,1.087l2.343,0.76
			c0.28,0.088,0.436,0.395,0.344,0.676c-0.089,0.278-0.392,0.428-0.672,0.336l-2.906-0.939
			C69.676,139.025,69.506,138.693,69.609,138.375z"/>
		<path fill="#FFFFFF" d="M75.707,140.286c-0.105-0.124-0.156-0.312-0.109-0.497c0.072-0.299,0.373-0.472,0.674-0.4
			c0.151,0.039,0.243,0.118,0.305,0.191c0.327,0.39,0.721,0.68,1.232,0.808c0.475,0.116,0.809,0,0.886-0.31l0.005-0.014
			c0.071-0.295-0.073-0.491-0.899-0.934c-0.996-0.535-1.612-0.999-1.351-2.05l0.003-0.016c0.237-0.958,1.164-1.399,2.241-1.133
			c0.642,0.155,1.159,0.46,1.558,0.88c0.112,0.108,0.2,0.297,0.144,0.525c-0.075,0.301-0.374,0.474-0.675,0.401
			c-0.114-0.029-0.197-0.082-0.275-0.157c-0.327-0.319-0.658-0.539-1.021-0.628c-0.445-0.11-0.73,0.035-0.793,0.292l-0.003,0.017
			c-0.086,0.344,0.112,0.513,0.968,0.975c1.002,0.541,1.511,1.078,1.283,1.998l-0.004,0.014c-0.258,1.048-1.205,1.44-2.343,1.158
			C76.84,141.236,76.189,140.852,75.707,140.286z"/>
		<path fill="#FFFFFF" d="M83.715,138.227l-1.131-0.197c-0.299-0.051-0.502-0.341-0.449-0.638c0.051-0.3,0.339-0.499,0.637-0.448
			l3.442,0.6c0.299,0.051,0.501,0.338,0.45,0.638c-0.054,0.299-0.341,0.503-0.639,0.449l-1.131-0.197l-0.65,3.723
			c-0.057,0.332-0.364,0.546-0.691,0.488c-0.329-0.059-0.543-0.361-0.486-0.691L83.715,138.227z"/>
		<path fill="#FFFFFF" d="M87.798,141.935c0.385,0.048,0.635,0.37,0.589,0.738l-0.003,0.016c-0.047,0.371-0.367,0.621-0.754,0.572
			c-0.385-0.049-0.635-0.368-0.588-0.74l0.002-0.015C87.09,142.136,87.413,141.886,87.798,141.935z"/>
		<path fill="#FFFFFF" d="M94.301,138.935c-0.006-0.331,0.252-0.604,0.586-0.608l0.133-0.002c0.257-0.006,0.437,0.122,0.55,0.302
			l1.492,2.325l1.408-2.389c0.122-0.205,0.289-0.309,0.53-0.312l0.134-0.005c0.333-0.006,0.602,0.252,0.61,0.588l0.081,4.321
			c0.008,0.336-0.252,0.604-0.586,0.612c-0.329,0.007-0.598-0.26-0.603-0.589l-0.053-2.711l-1.018,1.637
			c-0.123,0.188-0.275,0.307-0.492,0.312c-0.219,0.002-0.377-0.111-0.506-0.295l-1.063-1.572l0.052,2.706
			c0.006,0.325-0.253,0.585-0.581,0.594c-0.326,0.006-0.588-0.246-0.595-0.572L94.301,138.935z"/>
		<path fill="#FFFFFF" d="M101.945,138.598c-0.047-0.328,0.178-0.631,0.506-0.676l0.133-0.018c0.254-0.035,0.449,0.066,0.581,0.231
			l1.767,2.124l1.103-2.544c0.095-0.22,0.25-0.342,0.488-0.378l0.131-0.019c0.331-0.045,0.629,0.177,0.679,0.507l0.61,4.281
			c0.048,0.327-0.176,0.627-0.508,0.676c-0.323,0.046-0.624-0.188-0.67-0.509l-0.383-2.686l-0.811,1.749
			c-0.097,0.204-0.233,0.338-0.449,0.37c-0.215,0.032-0.385-0.062-0.537-0.23l-1.247-1.43l0.384,2.678
			c0.046,0.323-0.179,0.615-0.501,0.657c-0.323,0.047-0.614-0.169-0.66-0.49L101.945,138.598z"/>
		<path fill="#FFFFFF" d="M110.367,141.218l1.03-2.087l-1.729-1.339c-0.116-0.092-0.234-0.224-0.273-0.391
			c-0.073-0.328,0.112-0.632,0.444-0.711c0.25-0.057,0.418,0.009,0.605,0.165l1.516,1.284l0.806-1.782
			c0.112-0.242,0.236-0.391,0.496-0.448c0.259-0.059,0.577,0.082,0.653,0.416c0.037,0.166,0.009,0.316-0.074,0.487l-0.97,1.964
			l1.827,1.425c0.117,0.095,0.235,0.228,0.274,0.393c0.072,0.324-0.109,0.633-0.444,0.707c-0.251,0.058-0.417-0.008-0.604-0.162
			l-1.617-1.35l-0.861,1.885c-0.114,0.242-0.239,0.389-0.497,0.449c-0.259,0.058-0.577-0.084-0.654-0.419
			C110.255,141.539,110.286,141.389,110.367,141.218z"/>
		<path fill="#FFFFFF" d="M115.986,135.779c-0.095-0.319,0.086-0.647,0.406-0.74c0.319-0.094,0.649,0.085,0.739,0.405l1.219,4.162
			c0.095,0.321-0.083,0.649-0.407,0.742c-0.32,0.094-0.646-0.087-0.74-0.406L115.986,135.779z"/>
		<path fill="#FFFFFF" d="M119.442,134.707c-0.105-0.319,0.059-0.655,0.375-0.763c0.316-0.108,0.655,0.059,0.762,0.374l1.394,4.116
			c0.108,0.317-0.057,0.655-0.374,0.761c-0.316,0.106-0.652-0.057-0.761-0.376L119.442,134.707z"/>
	</g>
	<g>
		<path fill="#FFFFFF" d="M78.191,48.06c1.165,0.489,2.354,0.293,2.774,0.362c0.417,0.067,1.026-0.521,1.026-0.521
			c9.902-2.354,7.795-4.45,9.524-5.332c1.727-0.878,1.82-1.464,2.446-2.135c0.623-0.673,1.147-3.419,1.084-3.814
			c-0.063-0.396-0.684-0.542-0.424-1.097c0.261-0.56,0.461-1.512,0.464-1.814c0.004-0.27-0.769-1.117-1.316-1.752
			c-0.106,0.04-0.174,0.066-0.174,0.066l-1.02-0.55c0,0,0.242-0.003,0.567-0.027c-0.494-0.178-1.034-0.037-1.087-0.496
			c-0.074-0.613-0.667-0.924-0.667-0.924s-5.253-0.933-8.701,3.706c-3.45,4.633-4.087,7.535-4.174,8.335
			c-0.087,0.798,0.109,3.319,0.109,3.319s-0.217,0.009-0.438,0.315C77.964,46.007,78.191,48.06,78.191,48.06z M82.261,46.226
			c0,0,6.803-6.026,6.878-6.744c0.071-0.716,3.805-5.26,4.137-5.722c0.33-0.462,0.855-0.249,0.662-0.11
			c-0.196,0.142-1.146,1.79-1.034,2.152c0.115,0.361-1.551,4.297-2.388,4.975C89.678,41.458,83.955,46.629,82.261,46.226z
			 M82.141,45.651c0,0,0.587-2.05,0.835-2.526c0.247-0.474,1.573-0.99,2.009-3.153c0.432-2.157,1.916-3.377,2.415-3.812
			s4.502-3.994,5.614-3.172c0,0-5.016,6.657-5.629,6.73C86.773,39.79,82.141,45.651,82.141,45.651z M81.249,44.519
			c0,0,1.428-3.544,1.288-5.066c-0.142-1.524,6.552-8.724,9.469-7.656c0,0-8.537,3.732-8.899,9.462
			C83.106,41.258,81.583,44.575,81.249,44.519z"/>
		<path fill="#FFFFFF" d="M99.856,34.055c0,0-0.062-0.069-0.144-0.165c-0.717,0.432-0.73,1.445-1.391,1.261
			c-0.733-0.205-1.368,0.329-1.368,0.329s-3.535,5.567,0.142,11.689c3.675,6.121,6.69,8.215,7.566,8.689
			c0.873,0.477,3.846,1.438,3.846,1.438s-0.093,0.247,0.153,0.648c0.248,0.396,2.703,1.101,2.703,1.101
			c1.104-1.101,1.44-2.554,1.716-2.999c0.273-0.448-0.111-1.419-0.111-1.419c1.965-12.423-1.424-11.002-1.614-13.392
			c-0.194-2.387-0.82-2.772-1.294-3.799c-0.476-1.029-3.366-2.924-3.85-3.035c-0.482-0.114-0.937,0.529-1.455-0.033
			c-0.514-0.559-1.515-1.235-1.854-1.383c-0.248-0.107-1.175,0.194-2.043,0.486c0.249,0.202,0.418,0.34,0.418,0.34L99.856,34.055z
			 M111.183,53.532c0,0-3.689-10.61-4.475-11.03c-0.784-0.421-4.226-6.828-4.599-7.421c-0.37-0.597,0.119-1.096,0.186-0.808
			c0.072,0.288,1.509,2.152,1.977,2.191c0.464,0.042,4.182,3.792,4.563,5.072C109.219,42.813,112.436,51.785,111.183,53.532z
			 M110.463,53.401c0,0-2.063-1.638-2.492-2.143c-0.428-0.507-0.391-2.267-2.656-3.778c-2.267-1.513-2.963-3.783-3.224-4.554
			c-0.264-0.776-2.449-7.028-0.986-7.912c0,0,5.251,8.866,5.044,9.6C105.945,45.349,110.463,53.401,110.463,53.401z M105.899,50.232
			c0,0,3.072,3.295,2.854,3.654c0,0-3.379-3.301-5.188-3.857c-1.805-0.553-6.892-11.589-4.297-14.421
			C99.269,35.608,99.518,47.119,105.899,50.232z"/>
		<path fill="#FFFFFF" d="M93.144,31.444c0.73-0.057,1.932-0.237,2.094-0.834c0.236-0.859,0.706-2.112,0.706-2.112
			s-0.237-0.544-0.47-1.094c-0.236-0.547,0.313-1.565,0.313-1.565l0.39,0.313c0,0-0.546,1.25,0.158,0.469
			c0,0,2.594-3.879,2.594-4.029c0-0.149,0.857-0.131,1.006-0.355c0.149-0.222,0.279,0.542,0.279,0.542L99.413,23
			c0,0-2.664,3.579-2.476,3.804c0.186,0.225,0.336,0.969,0.949,0.875c0.614-0.093,1.732,0.525,1.77,0.767
			c0.038,0.24,0.392,0.184,0.021,0.482c-0.376,0.298-0.281,0.188-0.281,0.131c0-0.055-0.113-0.241-0.168-0.373
			c-0.058-0.129-0.672-0.595-1.063-0.412c-0.391,0.188,0.094,1.101-0.037,1.325c-0.129,0.224-0.11,0.486-0.11,1.006
			c0,0.521-0.096,0.71,0.166,0.803c0.197,0.071,1.881,1.419,2.675,2.063c-0.315,0.106-0.625,0.211-0.888,0.294
			c-0.1,0.033-0.177,0.08-0.258,0.125c-0.425-0.478-1.731-1.96-2.125-2.419c-0.471-0.547-0.079-1.876-0.079-1.876l-0.158-1.488
			c0,0-0.391-0.625-0.702,0.078c-0.312,0.705-0.548,3.053-1.174,3.209c-0.487,0.121-1.34,0.429-1.704,0.562
			c-0.06-0.069-0.12-0.138-0.171-0.202C93.466,31.595,93.307,31.502,93.144,31.444z"/>
	</g>
	<path fill="#FFFFFF" d="M165.977,86.552l-7.58,4.21c-0.724,0.377-1.387,0.601-1.979,0.667c-0.593,0.063-1.104,0.054-1.529-0.031
		c-0.338-0.088-0.688-0.259-1.048-0.514c-0.361-0.254-0.69-0.615-0.989-1.082l-1.335-2.166c0.976-0.552,2.046-1.145,3.216-1.783
		c1.166-0.638,2.277-1.526,3.342-2.676c0.382-0.426,0.743-0.995,1.085-1.72c0.339-0.722,0.582-1.527,0.732-2.422
		c0.148-0.89,0.148-1.801,0-2.736c-0.15-0.935-0.542-1.809-1.183-2.614c-0.678-0.846-1.716-1.421-3.118-1.719
		c-1.399-0.298-2.781-0.212-4.14,0.255c-0.896,0.341-1.562,0.646-2.007,0.925c-0.447,0.274-0.883,0.54-1.306,0.797l7.835-17.968
		h-7.518l-13.822,32.934l-1.204,2.503c-0.169,0.085-0.354,0.171-0.562,0.26c-0.374,0.152-0.768,0.288-1.182,0.385
		c-0.413,0.098-0.824,0.137-1.241,0.115c-0.411-0.018-0.759-0.146-1.031-0.384c-0.237-0.193-0.424-0.421-0.563-0.68
		c-0.138-0.254-0.203-0.58-0.203-0.975c0-0.432,0.076-0.964,0.233-1.593c0.158-0.629,0.434-1.419,0.827-2.357
		c0.351-0.791,0.79-1.677,1.298-2.662c0.432-0.828,0.977-1.774,1.626-2.833c0.647-1.063,1.427-2.186,2.332-3.365l-2.835-2.897
		c0,0-3.59,3.536-6.387,4.077c0.159-0.625,0.24-1.268,0.24-1.933c0-0.549-0.063-1.166-0.18-1.849
		c-0.12-0.681-0.391-1.296-0.825-1.844c-0.514-0.705-1.233-1.261-2.157-1.674c-0.924-0.41-1.881-0.612-2.863-0.612
		c-0.985,0-1.926,0.244-2.836,0.737c-0.904,0.487-1.595,1.285-2.065,2.384c-0.63,1.417-0.806,2.664-0.534,3.74
		c0.274,1.083,0.713,2.014,1.302,2.8c0.708,0.904,1.597,1.688,2.659,2.357c0,0-2.288,1.593-5.521,1.922
		c0.339-1.052,0.568-2.219,0.673-3.52c0.129-1.441-0.064-2.742-0.576-3.885c-0.506-1.147-1.23-2.124-2.166-2.932
		c-0.932-0.803-2.004-1.423-3.214-1.847c-1.211-0.425-2.475-0.638-3.791-0.638c-1.739,0-3.472,0.342-5.193,1.021
		c-1.718,0.681-3.3,1.591-4.743,2.739c-1.446,1.144-2.699,2.494-3.763,4.044c-1.058,1.552-1.825,3.218-2.29,5.002
		c-0.403,1.383-0.545,2.726-0.429,4.03l-2.439,1.32c-0.297,0.173-0.689,0.332-1.178,0.479c-0.491,0.15-0.998,0.254-1.528,0.319
		c-0.531,0.062-1.043,0.073-1.53,0.03c-0.49-0.039-0.903-0.169-1.242-0.383c-0.77-0.467-1.171-1.102-1.214-1.912
		c-0.04-0.804,0.212-2.124,0.768-3.948l7.328-24.143c0.126-0.426,0.284-0.768,0.477-1.02c0.19-0.258,0.39-0.467,0.605-0.638
		c0.208-0.171,0.467-0.339,0.764-0.51l0.89-4.014c-1.061-0.126-2.144-0.146-3.249-0.065c-0.979,0.089-2.031,0.225-3.152,0.415
		c-1.126,0.193-2.243,0.543-3.344,1.053c-1.402,0.725-2.784,1.817-4.142,3.282c-1.361,1.464-2.655,3.151-3.886,5.063L60.757,80.437
		l-6.689-8.727l1.656-4.523c0.513-1.399,0.901-2.611,1.18-3.63c0.276-1.019,0.457-1.911,0.541-2.676
		c0.083-0.765,0.083-1.411,0-1.942c-0.084-0.532-0.232-1.03-0.448-1.498c-0.845-1.784-1.943-3.047-3.277-3.791
		c-1.337-0.743-3.091-0.947-5.255-0.605c-1.616,0.215-2.976,0.725-4.077,1.527c-1.103,0.806-2.06,1.953-2.866,3.436
		c-0.68,1.188-1.106,2.366-1.274,3.531c-0.173,1.166-0.173,2.267,0,3.308c0.168,1.039,0.465,2.004,0.888,2.895
		c0.424,0.893,0.894,1.677,1.407,2.351l3.5,4.711l-5.032,12.217c-0.426,0.976-0.918,1.747-1.465,2.32
		c-0.553,0.573-1.082,0.986-1.592,1.243c-0.596,0.29-1.209,0.463-1.849,0.506l-0.955,5.602c0.934-0.043,1.891-0.171,2.869-0.383
		c0.846-0.211,1.77-0.53,2.77-0.954c0.998-0.423,1.96-1.037,2.897-1.848c0.596-0.549,1.169-1.205,1.721-1.971
		c0.553-0.762,1.018-1.632,1.402-2.606l3.502-8.906l5.862,7.571l-5.924,8.647c-0.81,1.146-1.774,2.207-2.898,3.181
		c-1.126,0.976-2.388,1.798-3.79,2.455c-1.403,0.657-2.931,1.136-4.586,1.429c-1.658,0.299-3.398,0.387-5.224,0.256
		c-0.556-0.042-1.416-0.236-2.582-0.576c-1.17-0.338-2.328-0.923-3.472-1.749c-1.149-0.826-2.158-1.934-3.025-3.312
		c-0.874-1.382-1.309-3.111-1.309-5.192c0-1.151,0.15-2.186,0.447-3.121c0.299-0.934,0.648-1.767,1.053-2.486
		c0.403-0.723,0.848-1.339,1.335-1.848c0.489-0.509,0.925-0.889,1.309-1.146c1.314-0.932,2.547-1.475,3.693-1.623
		c1.146-0.149,2.143-0.139,2.995,0.032c1.02,0.167,1.975,0.527,2.867,1.082c0.595-1.358,0.827-2.612,0.7-3.759
		c-0.085-0.975-0.521-1.924-1.306-2.836c-0.788-0.912-2.242-1.517-4.364-1.815c-1.401-0.211-2.792-0.116-4.173,0.288
		c-1.381,0.404-2.665,0.946-3.854,1.625c-1.19,0.677-2.23,1.432-3.123,2.26c-0.892,0.828-1.529,1.582-1.913,2.261
		c-0.977,1.614-1.717,3.495-2.229,5.635c-0.508,2.148-0.593,4.28-0.256,6.401c0.34,2.173,0.958,4.05,1.848,5.642
		c0.893,1.593,1.92,2.948,3.09,4.088c1.168,1.127,2.421,2.061,3.758,2.792c1.339,0.736,2.658,1.304,3.952,1.71
		c1.293,0.407,2.507,0.688,3.631,0.837c1.126,0.152,2.028,0.228,2.707,0.228c3.651,0,6.826-0.575,9.525-1.724
		c2.696-1.146,5.042-2.58,7.037-4.301c1.998-1.717,3.687-3.557,5.067-5.508c1.378-1.95,2.581-3.764,3.598-5.416l16.821-27.199
		c0.338-0.554,0.647-0.977,0.922-1.276c0.275-0.296,0.522-0.552,0.733-0.765c0.253-0.211,0.489-0.382,0.7-0.509l-8.921,19.812
		c-0.421,0.892-0.804,1.857-1.142,2.898c-0.342,1.042-0.545,2.091-0.607,3.154c-0.064,1.062,0.077,2.109,0.414,3.151
		c0.341,1.046,1,2.028,1.976,2.961c0.935,0.895,1.961,1.535,3.089,1.916c1.126,0.38,2.252,0.58,3.377,0.6
		c1.124,0.023,2.218-0.103,3.281-0.378c1.06-0.278,1.975-0.629,2.738-1.054l4.708-2.592c0.1,0.167,0.211,0.332,0.325,0.491
		c0.847,1.191,1.955,2.101,3.312,2.737c1.359,0.638,2.889,0.96,4.587,0.96c1.188,0,2.444-0.142,3.759-0.415
		c1.319-0.276,2.636-0.842,3.953-1.69c2.036-1.121,4.384-3.731,4.384-3.731c0.275-0.334,0.62-0.781,0.967-1.266
		c4.15,0.413,8.694-0.436,13-3.92c-0.214,0.307-0.403,0.614-0.569,0.911c-0.437,0.785-0.75,1.544-0.942,2.272
		c-0.199,0.73-0.297,1.446-0.297,2.156c-0.039,1.532,0.411,2.812,1.358,3.837c0.552,0.558,1.122,0.997,1.71,1.327
		c0.592,0.336,1.064,0.546,1.42,0.62c0.354,0.118,0.816,0.208,1.387,0.27c0.569,0.057,1.192,0.064,1.859,0.027
		c0.674-0.038,1.378-0.157,2.127-0.355c0.747-0.192,1.495-0.511,2.245-0.944l7.344-4.134c0.876-0.409,1.637-0.747,2.268-1.021
		l2.801,2.8c0.809,0.769,1.627,1.388,2.456,1.851c0.827,0.473,1.454,0.786,1.879,0.959c1.231,0.378,2.665,0.477,4.301,0.282
		c1.634-0.187,3.134-0.664,4.491-1.432l8.024-4.46L165.977,86.552z M50.756,62.917l-1.339,3.507c-0.595-0.51-1.124-1.041-1.59-1.592
		c-0.382-0.467-0.713-1.041-0.989-1.72c-0.278-0.681-0.372-1.404-0.287-2.167c0.083-0.721,0.349-1.395,0.796-2.006
		c0.447-0.618,1.027-0.966,1.751-1.052c1.106-0.125,1.803,0.288,2.105,1.242C51.502,60.083,51.351,61.35,50.756,62.917z
		 M99.935,77.633c0.725-0.55,1.511-0.952,2.358-1.209c0,0,2.337-0.241,3.692,1.147c0.174,0.13,0.34,0.32,0.512,0.574
		c0.131,0.214,0.257,0.51,0.383,0.89c0.127,0.382,0.19,0.916,0.19,1.595c0.043,0.72-0.07,1.583-0.351,2.582
		c-0.046,0.165-0.105,0.338-0.161,0.511c-3.106-0.845-6.688-2.255-8.764-4.072c0.066-0.075,0.127-0.154,0.199-0.233
		C98.568,78.783,99.212,78.188,99.935,77.633z M102.301,90.404c-0.726,0.807-2.213,1.64-3.189,1.916
		c-0.98,0.274-1.785,0.328-2.425,0.159c-0.934-0.259-1.593-0.872-1.971-1.85c-0.386-0.935-0.492-2.084-0.319-3.437
		c0.155-1.268,0.527-2.532,1.088-3.795c1.096,0.884,4.324,3.322,8.6,4.96C103.562,89.095,102.927,89.882,102.301,90.404z
		 M118.245,75.963c0-0.511,0.164-0.903,0.503-1.18c0.332-0.277,0.678-0.404,1.031-0.388c0.354,0.021,0.659,0.227,0.915,0.624
		c0.256,0.391,0.286,1.003,0.092,1.828c-0.043,0.197-0.082,0.387-0.12,0.563c-0.039,0.177-0.076,0.324-0.116,0.44
		c-0.04,0.16-0.08,0.3-0.117,0.415c-0.594-0.078-1.105-0.314-1.536-0.71C118.459,77.161,118.245,76.629,118.245,75.963z
		 M148.902,83.049c-1.143,0.513-2.083,0.938-2.805,1.277c-0.72,0.335-1.315,0.612-1.78,0.824c-0.511,0.214-0.916,0.383-1.211,0.511
		l3.249-7.324c0.384-0.424,0.797-0.755,1.24-0.986c0.447-0.233,0.861-0.415,1.244-0.542c0.466-0.171,0.89-0.254,1.275-0.254
		c0.55-0.044,1.008,0.105,1.37,0.445c0.356,0.338,0.56,0.829,0.603,1.461c0.042,0.979-0.289,1.9-0.987,2.772
		C150.398,82.103,149.667,82.709,148.902,83.049z"/>
	<path fill="#FFFFFF" d="M98.512,69.242c1.552,0,2.802-1.254,2.802-2.801c0-1.55-1.25-2.806-2.802-2.806
		c-1.55,0-2.803,1.256-2.803,2.806C95.709,67.988,96.962,69.242,98.512,69.242z"/>
	<circle fill="#FFFFFF" cx="107.533" cy="66.439" r="2.803"/>
	<g>
		<path fill="#FFFFFF" d="M57.645,105.187v-0.016c0-1.4,1.054-2.543,2.568-2.543c0.737,0,1.236,0.192,1.644,0.498
			c0.113,0.083,0.213,0.238,0.213,0.429c0,0.296-0.24,0.526-0.537,0.526c-0.146,0-0.246-0.054-0.322-0.104
			c-0.303-0.224-0.619-0.35-1.007-0.35c-0.83,0-1.427,0.688-1.427,1.529v0.015c0,0.844,0.584,1.549,1.427,1.549
			c0.459,0,0.76-0.142,1.069-0.389c0.085-0.072,0.198-0.118,0.325-0.118c0.275,0,0.505,0.226,0.505,0.501
			c0,0.168-0.084,0.301-0.183,0.386c-0.443,0.386-0.964,0.616-1.752,0.616C58.721,107.716,57.645,106.6,57.645,105.187z"/>
		<path fill="#FFFFFF" d="M63.758,106.938l1.716-3.877c0.12-0.266,0.337-0.429,0.633-0.429h0.063c0.293,0,0.506,0.163,0.625,0.429
			l1.716,3.877c0.035,0.077,0.057,0.147,0.057,0.219c0,0.287-0.225,0.521-0.514,0.521c-0.254,0-0.421-0.149-0.521-0.377l-0.33-0.771
			h-2.167l-0.344,0.811c-0.092,0.209-0.275,0.338-0.5,0.338c-0.281,0-0.498-0.224-0.498-0.509
			C63.695,107.093,63.722,107.015,63.758,106.938z M66.804,105.573l-0.683-1.626l-0.682,1.626H66.804z"/>
		<path fill="#FFFFFF" d="M70.004,105.187v-0.016c0-1.4,1.055-2.543,2.569-2.543c0.737,0,1.237,0.192,1.645,0.498
			c0.112,0.083,0.211,0.238,0.211,0.429c0,0.296-0.24,0.526-0.536,0.526c-0.146,0-0.245-0.054-0.323-0.104
			c-0.302-0.224-0.619-0.35-1.006-0.35c-0.83,0-1.428,0.688-1.428,1.529v0.015c0,0.844,0.584,1.549,1.428,1.549
			c0.458,0,0.759-0.142,1.068-0.389c0.086-0.072,0.199-0.118,0.326-0.118c0.273,0,0.506,0.226,0.506,0.501
			c0,0.168-0.086,0.301-0.183,0.386c-0.444,0.386-0.965,0.616-1.752,0.616C71.081,107.716,70.004,106.6,70.004,105.187z"/>
		<path fill="#FFFFFF" d="M76.117,106.938l1.715-3.877c0.121-0.266,0.338-0.429,0.634-0.429h0.063c0.294,0,0.505,0.163,0.625,0.429
			l1.718,3.877c0.034,0.077,0.056,0.147,0.056,0.219c0,0.287-0.225,0.521-0.514,0.521c-0.253,0-0.421-0.149-0.522-0.377
			l-0.329-0.771h-2.166l-0.345,0.811c-0.092,0.209-0.275,0.338-0.5,0.338c-0.281,0-0.499-0.224-0.499-0.509
			C76.054,107.093,76.082,107.015,76.117,106.938z M79.163,105.573l-0.684-1.626l-0.682,1.626H79.163z"/>
		<path fill="#FFFFFF" d="M82.363,105.187v-0.016c0-1.4,1.104-2.543,2.623-2.543c1.521,0,2.61,1.131,2.61,2.528v0.015
			c0,1.403-1.104,2.545-2.623,2.545C83.454,107.716,82.363,106.587,82.363,105.187z M86.464,105.187v-0.016
			c0-0.843-0.62-1.544-1.492-1.544c-0.872,0-1.479,0.688-1.479,1.529v0.015c0,0.844,0.622,1.549,1.492,1.549
			C85.859,106.72,86.464,106.031,86.464,105.187z"/>
		<path fill="#FFFFFF" d="M92.355,106.938l1.714-3.877c0.122-0.266,0.339-0.429,0.633-0.429h0.063c0.295,0,0.506,0.163,0.627,0.429
			l1.716,3.877c0.034,0.077,0.056,0.147,0.056,0.219c0,0.287-0.224,0.521-0.514,0.521c-0.254,0-0.422-0.149-0.521-0.377
			l-0.331-0.771h-2.166l-0.346,0.811c-0.091,0.209-0.275,0.338-0.5,0.338c-0.281,0-0.499-0.224-0.499-0.509
			C92.292,107.093,92.32,107.015,92.355,106.938z M95.4,105.573l-0.684-1.626l-0.682,1.626H95.4z"/>
		<path fill="#FFFFFF" d="M98.996,103.25c0-0.302,0.237-0.539,0.538-0.539h1.711c0.628,0,1.112,0.173,1.434,0.498
			c0.274,0.275,0.424,0.664,0.424,1.125v0.015c0,0.775-0.388,1.254-0.984,1.497l0.753,0.916c0.105,0.135,0.174,0.244,0.174,0.417
			c0,0.299-0.254,0.499-0.513,0.499c-0.245,0-0.408-0.122-0.534-0.283l-1.058-1.337h-0.864v1.076c0,0.303-0.237,0.544-0.542,0.544
			c-0.301,0-0.538-0.241-0.538-0.544V103.25z M101.175,105.104c0.525,0,0.828-0.282,0.828-0.698v-0.012
			c0-0.468-0.32-0.706-0.851-0.706h-1.077v1.416H101.175z"/>
		<path fill="#FFFFFF" d="M106.203,103.71h-1.04c-0.273,0-0.498-0.226-0.498-0.501c0-0.272,0.225-0.498,0.498-0.498h3.168
			c0.271,0,0.497,0.226,0.497,0.498c0,0.275-0.226,0.501-0.497,0.501h-1.044v3.424c0,0.303-0.239,0.544-0.541,0.544
			c-0.305,0-0.543-0.241-0.543-0.544V103.71z"/>
		<path fill="#FFFFFF" d="M110.642,103.209c0-0.303,0.239-0.541,0.542-0.541c0.301,0,0.543,0.238,0.543,0.541v3.925
			c0,0.303-0.242,0.544-0.543,0.544c-0.303,0-0.542-0.241-0.542-0.544V103.209z"/>
		<path fill="#FFFFFF" d="M113.839,107.112c-0.118-0.084-0.202-0.239-0.202-0.406c0-0.282,0.223-0.499,0.504-0.499
			c0.142,0,0.24,0.048,0.311,0.097c0.373,0.274,0.781,0.443,1.262,0.443c0.44,0,0.708-0.173,0.708-0.465v-0.013
			c0-0.274-0.17-0.415-0.993-0.627c-0.992-0.252-1.634-0.524-1.634-1.505v-0.013c0-0.896,0.721-1.485,1.727-1.485
			c0.598,0,1.117,0.155,1.562,0.438c0.119,0.069,0.239,0.218,0.239,0.429c0,0.279-0.225,0.499-0.508,0.499
			c-0.104,0-0.189-0.028-0.273-0.079c-0.357-0.208-0.695-0.332-1.033-0.332c-0.415,0-0.634,0.191-0.634,0.434v0.013
			c0,0.323,0.211,0.43,1.064,0.646c0.997,0.259,1.56,0.62,1.56,1.478v0.014c0,0.979-0.746,1.526-1.809,1.526
			C115.041,107.704,114.388,107.509,113.839,107.112z"/>
		<path fill="#FFFFFF" d="M119.11,106.938l1.716-3.877c0.12-0.266,0.337-0.429,0.632-0.429h0.063c0.294,0,0.507,0.163,0.626,0.429
			l1.719,3.877c0.035,0.077,0.055,0.147,0.055,0.219c0,0.287-0.225,0.521-0.513,0.521c-0.256,0-0.422-0.149-0.521-0.377l-0.33-0.771
			h-2.169l-0.344,0.811c-0.092,0.209-0.274,0.338-0.499,0.338c-0.281,0-0.5-0.224-0.5-0.509
			C119.045,107.093,119.075,107.015,119.11,106.938z M122.156,105.573l-0.685-1.626l-0.682,1.626H122.156z"/>
		<path fill="#FFFFFF" d="M125.749,103.224c0-0.303,0.238-0.543,0.541-0.543h0.114c0.259,0,0.414,0.128,0.561,0.316l2.092,2.745
			v-2.541c0-0.295,0.237-0.533,0.533-0.533c0.295,0,0.534,0.238,0.534,0.533v3.919c0,0.301-0.239,0.544-0.541,0.544h-0.036
			c-0.259,0-0.415-0.129-0.563-0.318l-2.165-2.843v2.64c0,0.294-0.238,0.535-0.533,0.535c-0.298,0-0.536-0.241-0.536-0.535V103.224z
			"/>
		<path fill="#FFFFFF" d="M132.184,107.112c-0.119-0.084-0.202-0.239-0.202-0.406c0-0.282,0.225-0.499,0.506-0.499
			c0.142,0,0.24,0.048,0.31,0.097c0.373,0.274,0.78,0.443,1.26,0.443c0.441,0,0.709-0.173,0.709-0.465v-0.013
			c0-0.274-0.167-0.415-0.993-0.627c-0.99-0.252-1.63-0.524-1.63-1.505v-0.013c0-0.896,0.717-1.485,1.723-1.485
			c0.598,0,1.118,0.155,1.562,0.438c0.121,0.069,0.238,0.218,0.238,0.429c0,0.279-0.225,0.499-0.507,0.499
			c-0.104,0-0.189-0.028-0.273-0.079c-0.356-0.208-0.696-0.332-1.033-0.332c-0.415,0-0.633,0.191-0.633,0.434v0.013
			c0,0.323,0.211,0.43,1.063,0.646c0.997,0.259,1.562,0.62,1.562,1.478v0.014c0,0.979-0.748,1.526-1.81,1.526
			C133.387,107.704,132.733,107.509,132.184,107.112z"/>
		<path fill="#FFFFFF" d="M69.29,112.935v-0.01c0-1.072,0.805-2.008,1.986-2.008c1.183,0,1.978,0.925,1.978,1.997v0.011
			c0,1.071-0.805,2.01-1.988,2.01C70.083,114.935,69.29,114.008,69.29,112.935z M72.798,112.935v-0.01
			c0-0.885-0.645-1.605-1.533-1.605c-0.888,0-1.522,0.712-1.522,1.595v0.011c0,0.881,0.646,1.602,1.532,1.602
			C72.166,114.526,72.798,113.817,72.798,112.935z"/>
		<path fill="#FFFFFF" d="M74.96,111.204c0-0.123,0.099-0.222,0.216-0.222h2.404c0.111,0,0.2,0.089,0.2,0.198
			c0,0.112-0.089,0.208-0.2,0.208h-2.182v1.388h1.933c0.11,0,0.199,0.087,0.199,0.199c0,0.109-0.089,0.197-0.199,0.197h-1.933v1.502
			c0,0.122-0.1,0.217-0.222,0.217c-0.117,0-0.216-0.095-0.216-0.217V111.204z"/>
		<path fill="#FFFFFF" d="M81.826,111.181c0-0.116,0.1-0.218,0.217-0.218h0.049c0.095,0,0.161,0.051,0.206,0.118l1.387,2.088
			l1.389-2.088c0.044-0.071,0.117-0.118,0.206-0.118h0.049c0.116,0,0.217,0.102,0.217,0.218v3.494c0,0.122-0.101,0.217-0.217,0.217
			c-0.123,0-0.223-0.101-0.223-0.217v-2.899l-1.242,1.826c-0.05,0.072-0.106,0.112-0.185,0.112c-0.075,0-0.139-0.04-0.187-0.112
			l-1.239-1.82v2.899c0,0.122-0.094,0.211-0.216,0.211c-0.116,0-0.21-0.089-0.21-0.211V111.181z"/>
		<path fill="#FFFFFF" d="M87.424,114.644v-3.439c0-0.123,0.101-0.222,0.216-0.222h2.415c0.111,0,0.2,0.089,0.2,0.198
			c0,0.112-0.088,0.2-0.2,0.2h-2.192v1.326h1.942c0.111,0,0.202,0.096,0.202,0.201c0,0.112-0.09,0.2-0.202,0.2h-1.942v1.36h2.22
			c0.112,0,0.201,0.089,0.201,0.199c0,0.112-0.088,0.198-0.201,0.198H87.64C87.524,114.866,87.424,114.766,87.424,114.644z"/>
		<path fill="#FFFFFF" d="M91.924,111.175c0-0.122,0.101-0.222,0.216-0.222c0.123,0,0.222,0.1,0.222,0.222v3.288h2.015
			c0.111,0,0.2,0.095,0.2,0.205c0,0.112-0.088,0.198-0.2,0.198H92.14c-0.115,0-0.216-0.101-0.216-0.223V111.175z"/>
		<path fill="#FFFFFF" d="M96.139,111.204c0-0.123,0.099-0.222,0.217-0.222h1.436c0.446,0,0.797,0.127,1.018,0.343
			c0.16,0.167,0.25,0.37,0.25,0.623v0.012c0,0.503-0.31,0.766-0.617,0.897c0.463,0.139,0.835,0.406,0.835,0.938v0.01
			c0,0.667-0.562,1.061-1.411,1.061h-1.51c-0.118,0-0.217-0.101-0.217-0.223V111.204z M97.722,112.714
			c0.526,0,0.892-0.239,0.892-0.696v-0.009c0-0.383-0.304-0.632-0.858-0.632H96.57v1.337H97.722z M97.876,114.473
			c0.589,0,0.954-0.259,0.954-0.693v-0.011c0-0.423-0.354-0.667-1.031-0.667H96.57v1.371H97.876z"/>
		<path fill="#FFFFFF" d="M100.754,112.935v-0.01c0-1.072,0.806-2.008,1.986-2.008c1.185,0,1.978,0.925,1.978,1.997v0.011
			c0,1.071-0.805,2.01-1.986,2.01C101.547,114.935,100.754,114.008,100.754,112.935z M104.262,112.935v-0.01
			c0-0.885-0.644-1.605-1.53-1.605c-0.89,0-1.522,0.712-1.522,1.595v0.011c0,0.881,0.646,1.602,1.531,1.602
			C103.629,114.526,104.262,113.817,104.262,112.935z"/>
		<path fill="#FFFFFF" d="M106.365,113.242v-2.067c0-0.122,0.1-0.222,0.218-0.222c0.121,0,0.219,0.1,0.219,0.222v2.036
			c0,0.839,0.451,1.312,1.188,1.312c0.717,0,1.172-0.432,1.172-1.28v-2.067c0-0.122,0.102-0.222,0.223-0.222
			c0.116,0,0.217,0.1,0.217,0.222v2.032c0,1.134-0.649,1.724-1.623,1.724C107.019,114.931,106.365,114.341,106.365,113.242z"/>
		<path fill="#FFFFFF" d="M111.418,111.204c0-0.123,0.101-0.222,0.216-0.222h1.455c0.478,0,0.861,0.144,1.106,0.389
			c0.188,0.187,0.299,0.461,0.299,0.766v0.011c0,0.639-0.432,1.011-1.04,1.128l0.969,1.242c0.043,0.054,0.071,0.1,0.071,0.163
			c0,0.116-0.11,0.211-0.223,0.211c-0.089,0-0.155-0.048-0.204-0.111l-1.095-1.42h-1.115v1.314c0,0.122-0.101,0.217-0.224,0.217
			c-0.115,0-0.216-0.095-0.216-0.217V111.204z M113.05,112.963c0.584,0,0.999-0.298,0.999-0.799v-0.012
			c0-0.477-0.366-0.764-0.995-0.764h-1.196v1.574H113.05z"/>
		<path fill="#FFFFFF" d="M116.213,111.181c0-0.116,0.099-0.218,0.215-0.218h0.062c0.1,0,0.159,0.051,0.221,0.129l2.361,3.009v-2.93
			c0-0.118,0.093-0.218,0.215-0.218c0.115,0,0.211,0.1,0.211,0.218v3.51c0,0.116-0.083,0.201-0.199,0.201h-0.023
			c-0.093,0-0.16-0.053-0.228-0.132l-2.41-3.081v3.012c0,0.116-0.092,0.211-0.216,0.211c-0.114,0-0.209-0.095-0.209-0.211V111.181z"
			/>
		<path fill="#FFFFFF" d="M121.378,114.644v-3.439c0-0.123,0.098-0.222,0.214-0.222h2.417c0.112,0,0.199,0.089,0.199,0.198
			c0,0.112-0.087,0.2-0.199,0.2h-2.194v1.326h1.943c0.112,0,0.202,0.096,0.202,0.201c0,0.112-0.09,0.2-0.202,0.2h-1.943v1.36h2.222
			c0.111,0,0.2,0.089,0.2,0.199c0,0.112-0.089,0.198-0.2,0.198h-2.444C121.476,114.866,121.378,114.766,121.378,114.644z"/>
	</g>
</g>
</svg>
